<?xml version="1.0" encoding="UTF-8"?>
<svg id="Layer_1" data-name="Layer 1" xmlns="http://www.w3.org/2000/svg" xmlns:xlink="http://www.w3.org/1999/xlink" viewBox="0 0 900 900">
  <defs>
    <style>
      .cls-1 {
        fill: url(#linear-gradient-2);
      }

      .cls-2 {
        fill: #777;
      }

      .cls-3 {
        fill: #80ba01;
      }

      .cls-4 {
        fill: url(#radial-gradient);
      }

      .cls-5 {
        fill: #02a4ef;
      }

      .cls-6 {
        fill: #f25022;
      }

      .cls-7 {
        fill: url(#radial-gradient-2);
      }

      .cls-8 {
        fill: url(#radial-gradient-3);
      }

      .cls-9 {
        fill: url(#linear-gradient-3);
      }

      .cls-10 {
        fill: url(#linear-gradient);
      }

      .cls-11 {
        fill: #ffb902;
      }
    </style>
    <radialGradient id="radial-gradient" cx="153.32" cy="845.13" fx="153.32" fy="845.13" r="213.72" gradientTransform="translate(-1.31 2102.3) scale(2.31 -2.31)" gradientUnits="userSpaceOnUse">
      <stop offset=".06" stop-color="#ae7fe2"/>
      <stop offset="1" stop-color="#0078d4"/>
    </radialGradient>
    <linearGradient id="linear-gradient" x1="194.2" y1="694" x2="163.69" y2="746.74" gradientTransform="translate(-1.31 2102.3) scale(2.31 -2.31)" gradientUnits="userSpaceOnUse">
      <stop offset="0" stop-color="#114a8b"/>
      <stop offset="1" stop-color="#0078d4" stop-opacity="0"/>
    </linearGradient>
    <radialGradient id="radial-gradient-2" cx="108.57" cy="680.43" fx="108.57" fy="680.43" r="198.89" gradientTransform="translate(-1.31 2102.3) scale(2.31 -2.31)" gradientUnits="userSpaceOnUse">
      <stop offset=".13" stop-color="#d59dff"/>
      <stop offset="1" stop-color="#5e438f"/>
    </radialGradient>
    <linearGradient id="linear-gradient-2" x1="269.14" y1="772.45" x2="236.44" y2="725.58" gradientTransform="translate(-1.31 2102.3) scale(2.31 -2.31)" gradientUnits="userSpaceOnUse">
      <stop offset="0" stop-color="#493474"/>
      <stop offset="1" stop-color="#8c66ba" stop-opacity="0"/>
    </linearGradient>
    <radialGradient id="radial-gradient-3" cx="304.73" cy="743.5" fx="304.73" fy="743.5" r="159.63" gradientTransform="translate(-1.31 2102.3) scale(2.31 -2.31)" gradientUnits="userSpaceOnUse">
      <stop offset=".06" stop-color="#50e6ff"/>
      <stop offset="1" stop-color="#436dcd"/>
    </radialGradient>
    <linearGradient id="linear-gradient-3" x1="150.5" y1="807.57" x2="198.62" y2="807.57" gradientTransform="translate(-1.31 2102.3) scale(2.31 -2.31)" gradientUnits="userSpaceOnUse">
      <stop offset="0" stop-color="#2d3f80"/>
      <stop offset="1" stop-color="#436dcd" stop-opacity="0"/>
    </linearGradient>
  </defs>
  <path class="cls-4" d="m391.87,39.84l-3.33,2.03c-5.23,3.2-10.22,6.77-14.9,10.65l9.61-6.71h81.28l14.78,111.89-73.89,73.89-73.89,51.36v59.24c0,41.38,21.61,79.74,57.02,101.11l77.77,47.11-164.35,95.88h-31.71l-59.05-35.78c-35.41-21.43-57.02-59.73-57.02-101.11v-199.15c0-41.38,21.61-79.81,57.02-101.17l177.35-107.27c1.11-.7,2.22-1.35,3.33-1.97Z"/>
  <path class="cls-10" d="m391.87,39.84l-3.33,2.03c-5.23,3.2-10.22,6.77-14.9,10.65l9.61-6.71h81.28l14.78,111.89-73.89,73.89-73.89,51.36v59.24c0,41.38,21.61,79.74,57.02,101.11l77.77,47.11-164.35,95.88h-31.71l-59.05-35.78c-35.41-21.43-57.02-59.73-57.02-101.11v-199.15c0-41.38,21.61-79.81,57.02-101.17l177.35-107.27c1.11-.7,2.22-1.35,3.33-1.97Z"/>
  <path class="cls-7" d="m730.55,379.39l14.78,22.17v47.85c0,41.32-21.61,79.68-57.02,101.11l-177.35,107.39c-37.62,22.78-84.79,22.78-122.42,0l-173.22-104.87c36.89,20.38,82.02,19.58,118.29-2.4l177.35-107.33c35.41-21.43,57.02-59.79,57.02-101.17v-66.2l162.57,103.45Z"/>
  <path class="cls-1" d="m730.55,379.39l14.78,22.17v47.85c0,41.32-21.61,79.68-57.02,101.11l-177.35,107.39c-37.62,22.78-84.79,22.78-122.42,0l-173.22-104.87c36.89,20.38,82.02,19.58,118.29-2.4l177.35-107.33c35.41-21.43,57.02-59.79,57.02-101.17v-66.2l162.57,103.45Z"/>
  <path class="cls-8" d="m745.33,250.26v199.15c0,1.27-.02,2.57-.06,3.88-1.29-39.9-22.66-76.54-56.96-97.29l-177.35-107.27c-37.62-22.78-84.79-22.78-122.42,0l-57.02,34.48v-140.15c0-41.38,21.61-79.74,57.02-101.17l3.51-2.16c37.07-20.69,82.45-19.95,118.91,2.09l177.35,107.27c35.41,21.37,57.02,59.79,57.02,101.17Z"/>
  <path class="cls-9" d="m745.33,250.26v199.15c0,1.27-.02,2.57-.06,3.88-1.29-39.9-22.66-76.54-56.96-97.29l-177.35-107.27c-37.62-22.78-84.79-22.78-122.42,0l-57.02,34.48v-140.15c0-41.38,21.61-79.74,57.02-101.17l3.51-2.16c37.07-20.69,82.45-19.95,118.91,2.09l177.35,107.27c35.41,21.37,57.02,59.79,57.02,101.17Z"/>
  <path class="cls-6" d="m139.65,712.83h69.06c0,23.02,0,46.04,0,69.06h-69.06v-69.06h0Z"/>
  <path class="cls-3" d="m215.76,712.83h69.06c0,23.02,0,46.04,0,69.06-23.02,0-46.04,0-69.05,0,0-23.02,0-46.04,0-69.06h0Z"/>
  <path class="cls-2" d="m762.41,739.14c6.37-4.14,14.59-4.53,21.77-2.55.06,4.26,0,8.53.03,12.8-3.41-1.5-7.42-2.48-11.01-1.01-2.85,1.13-4.54,4.05-4.98,6.97-.53,3.7-.19,7.46-.28,11.18,7.28.02,14.57,0,21.85,0,.05-4.73-.06-9.46.06-14.19,4.95-1.41,9.85-2.99,14.78-4.48.04,6.23-.06,12.46.05,18.7,4.92-.07,9.85-.02,14.78-.03v12.13c-4.94-.2-9.89-.05-14.84-.07.02,6.97,0,13.94,0,20.92.08,3.86-.21,7.74.24,11.59.27,2.27,1.1,4.78,3.23,5.96,3.56,2,8.08,1.12,11.36-1.07v12.25c-4.27,1.85-9.04,2.42-13.65,2.09-4.38-.32-8.92-1.92-11.78-5.4-3.3-3.94-4.15-9.27-4.22-14.25-.04-10.7,0-21.4-.02-32.11-7.29,0-14.58,0-21.86,0,0,16.79,0,33.59,0,50.38h-14.94c0-16.79-.02-33.58,0-50.37-3.46-.07-6.93.02-10.39-.05.01-3.99.03-7.98,0-11.97,3.45-.08,6.9-.05,10.35-.02.25-5.3-.56-10.76,1.03-15.92,1.34-4.66,4.32-8.87,8.42-11.5h0Z"/>
  <path class="cls-2" d="m442.62,740.01c3.01-.46,6.27.57,8.27,2.93,2.34,2.58,2.77,6.69,1.04,9.7-1.92,3.4-6.2,4.98-9.94,4.16-3.88-.7-7.11-4.3-6.93-8.32-.11-4.23,3.43-8,7.57-8.47h0Z"/>
  <path class="cls-2" d="m328.16,741.86h21.72c6.76,17.17,13.57,34.32,20.34,51.49,1.73,4.29,3.35,8.64,5.16,12.9,8.7-21.45,17.52-42.85,26.15-64.33,6.96-.11,13.93-.02,20.9-.04-.02,29.03,0,58.06,0,87.09-5.03-.01-10.05.04-15.07-.03.05-21.42,0-42.85.02-64.27,0-.96-.02-1.92-.09-2.89-.29.45-.56.91-.78,1.39-8.63,21.93-17.43,43.8-26.01,65.75-3.58.13-7.15,0-10.73.07-8.91-21.93-17.7-43.91-26.56-65.85-.23-.46-.48-.9-.75-1.33-.18,9.39-.03,18.78-.08,28.17,0,13,0,26,0,39-4.74.01-9.48,0-14.22,0,0-29.03,0-58.07,0-87.1h0Z"/>
  <path class="cls-2" d="m483.73,766.48c7.21-2.05,14.98-1.97,22.19.07,1.48.41,2.92.99,4.26,1.78-.08,4.76,0,9.52-.05,14.28-4.82-3.68-10.93-6.01-17.05-5.24-4.86.44-9.5,2.96-12.41,6.89-3.74,4.87-4.6,11.34-3.96,17.29.48,4.66,2.41,9.32,6.03,12.41,3.77,3.35,9.05,4.53,13.97,4.16,4.87-.56,9.47-2.62,13.4-5.5.04,4.51-.02,9.02.03,13.53-6.11,3.63-13.43,4.57-20.42,4.23-7.15-.38-14.28-3.09-19.46-8.11-5.62-5.42-8.68-13.15-9.04-20.9-.37-8.05,1.27-16.45,5.91-23.17,3.88-5.74,9.95-9.8,16.57-11.7h0Z"/>
  <path class="cls-2" d="m619.34,781.12c-2.59-5.77-7.27-10.58-13.04-13.19-6.65-3.03-14.22-3.43-21.38-2.52-7.53.95-14.86,4.49-19.63,10.49-4.37,5.36-6.49,12.25-6.89,19.08-.61,8.05.74,16.59,5.47,23.31,4.03,5.8,10.38,9.78,17.25,11.25,5.74,1.21,11.74,1.21,17.48.01,6.71-1.37,12.99-5.1,17.15-10.58,4.06-5.17,6.11-11.68,6.56-18.18.47-6.65-.2-13.55-2.97-19.69Zm-14.42,28.65c-1.43,3.21-4.04,5.92-7.34,7.21-3.86,1.48-8.19,1.57-12.18.53-4.05-1.06-7.49-3.99-9.36-7.72-2.41-4.8-2.77-10.35-2.27-15.62.46-4.79,2.12-9.72,5.77-13.03,2.65-2.47,6.25-3.67,9.82-3.87,4.49-.3,9.27.97,12.5,4.24,3.45,3.39,4.79,8.32,5.15,13.01.27,5.14.06,10.5-2.1,15.26Z"/>
  <path class="cls-2" d="m646.88,765.53c6.91-1.22,14.14-.32,20.67,2.15,0,4.58,0,9.15,0,13.73-4.57-3.14-10.15-4.83-15.69-4.63-2.79.11-5.86,1.29-7.13,3.94-1.01,2.63-.31,6.07,2.17,7.64,4.23,2.83,9.29,4.04,13.68,6.57,3.46,1.94,6.81,4.48,8.56,8.14,3.29,6.85,1.9,15.91-3.89,21.02-5.52,5.16-13.47,6.59-20.78,6.31-5.19-.34-10.41-1.36-15.18-3.48.02-4.82-.03-9.63.02-14.44,4.01,2.92,8.65,5,13.55,5.85,3.41.56,7.13.58,10.31-.95,3.04-1.51,3.59-5.84,1.78-8.49-1.69-2.04-4.18-3.16-6.52-4.27-4.4-1.98-9.03-3.63-12.89-6.6-2.72-2.12-4.77-5.11-5.58-8.47-1.19-4.96-.82-10.56,2.07-14.9,3.3-5.06,9.03-8.09,14.86-9.13h0Z"/>
  <path class="cls-2" d="m738.96,782.92c-2.3-6.2-6.9-11.56-12.83-14.52-6.8-3.44-14.71-3.94-22.17-3.01-6.01.77-11.92,3.05-16.51,7.08-5.59,4.82-8.88,11.92-9.85,19.17-.92,7.25-.61,14.9,2.35,21.69,2.84,6.66,8.44,12.07,15.18,14.72,6.64,2.62,14.04,2.91,21.03,1.78,7.16-1.18,13.93-4.94,18.37-10.73,4.73-5.98,6.77-13.72,6.76-21.26.1-5.05-.52-10.17-2.32-14.91Zm-13.48,21.16c-.57,3.28-1.71,6.56-3.86,9.16-2.17,2.61-5.39,4.21-8.72,4.7-3.58.53-7.34.28-10.69-1.16-3.61-1.53-6.4-4.65-7.87-8.24-1.78-4.28-2.13-9.02-1.78-13.6.34-4.43,1.6-8.99,4.52-12.43,2.67-3.22,6.77-5,10.9-5.23,4.22-.3,8.72.68,11.97,3.53,2.99,2.48,4.64,6.2,5.4,9.94.86,4.39.85,8.92.12,13.34Z"/>
  <path class="cls-2" d="m543.57,767.5c4.12-2.48,9.36-2.68,13.86-1.17-.02,4.98,0,9.96-.01,14.94-2.94-1.91-6.62-2.73-10.1-2.37-4.24.48-7.6,3.74-9.34,7.47-1.89,3.95-2.25,8.42-2.13,12.75,0,9.95,0,19.9,0,29.85h-14.72c-.01-20.8.02-41.6-.01-62.39,4.92-.06,9.83-.04,14.75-.01-.02,3.57,0,7.14-.01,10.72,1.6-3.89,3.97-7.66,7.72-9.78h0Z"/>
  <path class="cls-2" d="m436.41,766.56c4.95-.02,9.91-.07,14.86.02-.06,20.79,0,41.59-.02,62.38h-14.83c-.01-20.8,0-41.6,0-62.41h0Z"/>
  <path class="cls-5" d="m139.65,788.94c23.02,0,46.04,0,69.06,0,0,23.02,0,46.04,0,69.06h-69.06v-69.06h0Z"/>
  <path class="cls-11" d="m215.76,788.94c23.02,0,46.04,0,69.06,0v69.06h-69.06c0-23.02,0-46.04,0-69.06h0Z"/>
</svg>